<svg xmlns="http://www.w3.org/2000/svg" version="1.1" xmlns:xlink="http://www.w3.org/1999/xlink" xmlns:svgjs="http://svgjs.com/svgjs" width="1440" height="560" preserveAspectRatio="none" viewBox="0 0 1440 560"><g mask="url(&quot;#SvgjsMask1014&quot;)" fill="none"><rect width="1440" height="560" x="0" y="0" fill="rgba(119, 116, 116, 1)"></rect><path d="M997.69-56.83C844.92-3.33 822.67 435.38 593.47 448.97 364.27 462.56 391.37 378.97 189.26 378.97-12.85 378.97-112.4 448.71-214.96 448.97" stroke="rgba(250, 215, 218, 1)" stroke-width="2"></path><path d="M886.52-70.64C767.59-28.85 809.64 323.36 572.11 323.57 334.59 323.78 115.27 49.8-56.7 43.57" stroke="rgba(250, 215, 218, 1)" stroke-width="2"></path><path d="M978.75-19.71C812.93-4.58 700.62 340.53 418.67 340.75 136.73 340.97 9.86 115.55-141.4 111.15" stroke="rgba(250, 215, 218, 1)" stroke-width="2"></path><path d="M1324.03-14.43C1146.8-13.09 998.11 153.59 636.69 159.2 275.27 164.81 134.3 428.59-50.65 433.6" stroke="rgba(250, 215, 218, 1)" stroke-width="2"></path><path d="M873.52-4.75C760.7 28.04 823.99 332.67 561.11 346.35 298.23 360.03 95.78 474.48-63.71 475.15" stroke="rgba(250, 215, 218, 1)" stroke-width="2"></path></g><defs><mask id="SvgjsMask1014"><rect width="1440" height="560" fill="#ffffff"></rect></mask></defs></svg>