<svg id="Bold" height="512" viewBox="0 0 32 32" width="512" xmlns="http://www.w3.org/2000/svg"><g><path d="m26 32h-20c-3.314 0-6-2.686-6-6v-20c0-3.314 2.686-6 6-6h20c3.314 0 6 2.686 6 6v20c0 3.314-2.686 6-6 6z" fill="#ffe6e2"/></g><g fill="#fc573b"><path d="m17.591 17c-.149 0-.3-.055-.42-.166-.264-.243-.289-.665-.057-.941l3.556-4.229c.367-.44.506-1.039.37-1.598l-.303-1.233c-.087-.357.118-.72.458-.812.341-.09.687.124.775.48l.303 1.235c.24.986-.002 2.035-.646 2.808l-3.558 4.231c-.126.149-.302.225-.478.225z"/><path d="m12.659 19.333c-.163 0-.326-.065-.45-.195-.249-.26-.249-.682 0-.943l1.909-2c.249-.26.651-.26.9 0s.249.682 0 .943l-1.909 2c-.124.13-.287.195-.45.195z"/><path d="m14.091 20.833c-.163 0-.326-.065-.45-.195-.249-.26-.249-.682 0-.943l2.068-2.167c.249-.26.651-.26.9 0s.249.682 0 .943l-2.068 2.167c-.124.13-.287.195-.45.195z"/><path d="m17.748 20.667c-.178 0-.348-.078-.469-.215l-6.873-7.787c-.675-.803-.924-1.88-.675-2.893l.311-1.267c.058-.238.236-.423.462-.484.228-.06.467.014.626.195l8.518 9.662c.225.256.227.649.005.907l-1.431 1.661c-.121.14-.291.22-.47.221-.002 0-.003 0-.004 0z"/><path d="m21.25 12.664c-.163 0-.326-.065-.45-.195l-1.591-1.667c-.249-.26-.249-.682 0-.943.249-.26.651-.26.9 0l1.591 1.667c.249.26.249.682 0 .943-.124.13-.287.195-.45.195z"/><path d="m19.818 14.167c-.163 0-.326-.065-.45-.195l-1.591-1.667c-.249-.26-.249-.682 0-.943s.651-.26.9 0l1.591 1.667c.249.26.249.682 0 .943-.124.13-.287.195-.45.195z"/><path d="m18.386 15.5c-.163 0-.326-.065-.45-.195l-1.591-1.667c-.249-.26-.249-.682 0-.943s.651-.26.9 0l1.591 1.667c.249.26.249.682 0 .943-.124.13-.287.195-.45.195z"/></g><path d="m20.136 24c-1.579 0-2.863-1.346-2.863-3s1.285-3 2.863-3c1.579 0 2.864 1.346 2.864 3s-1.285 3-2.864 3zm0-4.703c-.901 0-1.634.764-1.634 1.703s.733 1.703 1.634 1.703 1.634-.764 1.634-1.703-.733-1.703-1.634-1.703z" fill="#fd907e"/><path d="m11.863 24c-1.578 0-2.863-1.346-2.863-3s1.285-3 2.863-3c1.579 0 2.864 1.346 2.864 3s-1.284 3-2.864 3zm0-4.703c-.901 0-1.634.764-1.634 1.703s.733 1.703 1.634 1.703 1.634-.764 1.634-1.703-.732-1.703-1.634-1.703z" fill="#fd907e"/></svg>